<svg width="24" height="24" viewBox="0 0 24 24" fill="none" xmlns="http://www.w3.org/2000/svg">
<path d="M20.8 14.222H3.654C3.52319 14.2219 3.39592 14.2645 3.29158 14.3434C3.18724 14.4223 3.11153 14.5331 3.076 14.659L1.72 19.456C1.63594 19.7534 1.62194 20.0662 1.6791 20.3699C1.73625 20.6736 1.86301 20.9599 2.04942 21.2064C2.23583 21.4529 2.47683 21.6528 2.75349 21.7905C3.03015 21.9282 3.33496 21.9999 3.644 22H20.356C20.665 21.9999 20.9698 21.9282 21.2465 21.7905C21.5232 21.6528 21.7642 21.4529 21.9506 21.2064C22.137 20.9599 22.2637 20.6736 22.3209 20.3699C22.3781 20.0662 22.3641 19.7534 22.28 19.456L20.8 14.222ZM20.8 14.222V8.112M3.2 14.222V4C3.2 3.46957 3.41071 2.96086 3.78578 2.58579C4.16086 2.21071 4.66956 2 5.2 2H12M11 19H13M17.657 4.828L14.828 7.657M20.485 4.828C20.3005 5.01902 20.0798 5.17138 19.8358 5.2762C19.5918 5.38102 19.3294 5.43619 19.0638 5.4385C18.7982 5.44081 18.5349 5.39021 18.2891 5.28964C18.0433 5.18908 17.82 5.04058 17.6322 4.85279C17.4444 4.665 17.2959 4.4417 17.1954 4.19591C17.0948 3.95012 17.0442 3.68676 17.0465 3.4212C17.0488 3.15564 17.104 2.8932 17.2088 2.64919C17.3136 2.40518 17.466 2.18449 17.657 2M14.828 10.485C15.1923 10.1078 15.3939 9.60259 15.3893 9.0782C15.3848 8.5538 15.1745 8.05218 14.8036 7.68136C14.4328 7.31055 13.9312 7.10021 13.4068 7.09565C12.8824 7.0911 12.3772 7.29268 12 7.657" stroke="white" stroke-width="0.5" stroke-linecap="round" stroke-linejoin="round"/>
</svg>
