<svg width="24" height="24" viewBox="0 0 24 24" fill="none" xmlns="http://www.w3.org/2000/svg">
<path d="M4.99999 3.00009L4.99999 21.0001C5.00056 21.1823 5.05082 21.361 5.14536 21.5168C5.23991 21.6726 5.37515 21.7996 5.53654 21.8843C5.69793 21.9689 5.87935 22.008 6.06127 21.9972C6.24319 21.9864 6.41873 21.9262 6.56899 21.8231L19.569 12.8231C20.108 12.4501 20.108 11.5521 19.569 11.1781L6.56899 2.17809C6.41904 2.07391 6.24342 2.01282 6.06119 2.00145C5.87897 1.99008 5.69711 2.02887 5.53538 2.1136C5.37365 2.19833 5.23823 2.32576 5.14384 2.48205C5.04945 2.63834 4.9997 2.81751 4.99999 3.00009Z" fill="white"/>
</svg>
